<?xml version="1.0" encoding="utf-8"?>
<!DOCTYPE svg PUBLIC "-//W3C//DTD SVG 1.1//EN" "http://www.w3.org/Graphics/SVG/1.1/DTD/svg11.dtd">
<svg xmlns="http://www.w3.org/2000/svg" xmlns:xlink="http://www.w3.org/1999/xlink" version="1.1" baseProfile="full" width="162.435" height="189.085" viewBox="0 0 162.44 189.09" enable-background="new 0 0 162.44 189.09" xml:space="preserve">
	<g>
		<path fill="#0088A5" fill-opacity="1" fill-rule="evenodd" stroke-width="0.2" stroke-linejoin="round" d="M 0,92.2178C 0,154.057 93.0803,187.246 83.9992,177.194L 78.1624,173.407C 78.0542,173.407 77.9452,173.302 77.9452,173.194C 77.8369,173.194 77.7287,173.085 77.7287,172.976C -45.0825,78.3797 52.4328,30.7039 92.7576,65.9483C 93.623,66.7054 94.3801,67.3535 95.1365,68.1106L 103.352,80.2187C 104.109,81.7322 103.675,82.1631 104.975,83.0285C 104.975,81.0833 105.406,80.9751 105.406,78.8134L 101.191,68.9753C 100.757,68.4332 100.865,68.7587 100.54,68.0017C 84.1082,38.703 34.1625,32.7573 10.3773,61.9476C 4.32329,69.9468 0.105408,83.1367 0.105408,92.2178"/>
		<path fill="#EC268F" fill-opacity="1" fill-rule="evenodd" stroke-width="0.2" stroke-linejoin="round" d="M 72.6483,98.7063C 72.6483,99.3544 72.7566,99.2454 73.1882,99.5687C 73.8391,100.111 74.2701,99.8942 76.0008,98.1635C 92.1095,85.9472 114.595,74.921 133.622,91.1387C 166.811,119.461 106.596,170.489 84.4337,186.598C 84.3247,186.598 84.3247,186.706 84.2165,186.706C 83.891,187.032 83.7827,187.032 83.4601,187.354C 82.9202,187.894 82.703,188.437 82.3775,189.085C 83.9992,189.408 85.9472,189.193 87.4607,188.437C 123.676,170.706 174.164,139.245 160,97.6236C 159.244,95.462 155.029,89.2997 152.867,87.1373C 132.649,66.4881 92.6494,71.2459 77.2971,91.8951C 76.0008,93.623 74.7017,95.462 73.4047,97.1927C 73.0821,97.7319 72.7566,97.8409 72.7566,98.5973"/>
		<path fill="#FF7D00" fill-opacity="1" fill-rule="evenodd" stroke-width="0.2" stroke-linejoin="round" d="M 88.5397,118.382C 95.4591,120.652 97.1899,118.813 103.784,123.139C 118.271,132.652 115.783,150.491 100.865,156.868C 90.596,161.299 75.2437,157.41 75.6753,147.029C 76.0008,139.139 91.0276,133.948 97.6208,146.921C 97.4071,136.327 87.2435,136.544 85.4045,133.733C 83.9992,132.003 85.6217,128.867 88.3261,128.002C 92.8666,126.38 93.9456,128.651 97.1899,129.841C 94.9193,123.353 84.8646,123.679 82.703,128.976L 81.5121,134.382C 79.3504,136.004 76.9716,136.004 74.1618,138.166C 66.7025,144.002 69.6213,154.166 75.2437,158.707C 94.1629,173.733 128.756,154.814 117.296,131.463C 112.325,121.409 100.973,117.082 88.757,118.382"/>
		<path fill="#0088A5" fill-opacity="1" fill-rule="evenodd" stroke-width="0.2" stroke-linejoin="round" d="M 65.5117,18.1621C 65.5117,28.1947 56.0275,36.327 44.3226,36.327C 32.6212,36.327 23.1335,28.1947 23.1335,18.1621C 23.1335,8.13231 32.6212,-1.52588e-005 44.3226,-1.52588e-005C 56.0275,-1.52588e-005 65.5117,8.13231 65.5117,18.1621 Z "/>
		<path fill="#EC268F" fill-opacity="1" fill-rule="evenodd" stroke-width="0.2" stroke-linejoin="round" d="M 154.595,52.3267C 154.595,62.3565 145.11,70.4888 133.406,70.4888C 121.704,70.4888 112.217,62.3565 112.217,52.3267C 112.217,42.2941 121.704,34.1618 133.406,34.1618C 145.11,34.1618 154.595,42.2941 154.595,52.3267 Z "/>
	</g>
</svg>
