<?xml version="1.0" encoding="utf-8"?>
<!DOCTYPE svg PUBLIC "-//W3C//DTD SVG 1.1//EN" "http://www.w3.org/Graphics/SVG/1.1/DTD/svg11.dtd">
<svg xmlns="http://www.w3.org/2000/svg" xmlns:xlink="http://www.w3.org/1999/xlink" version="1.1" baseProfile="full" width="741.733" height="189.085" viewBox="0 0 741.73 189.09" enable-background="new 0 0 741.73 189.09" xml:space="preserve">
	<g>
		<path fill="#0088A5" fill-opacity="1" fill-rule="evenodd" stroke-width="0.2" stroke-linejoin="round" d="M 0,92.2178C 0,154.057 93.0803,187.246 83.9992,177.194L 78.1624,173.407C 78.0542,173.407 77.9452,173.302 77.9452,173.194C 77.837,173.194 77.7287,173.085 77.7287,172.976C -45.0825,78.3797 52.4328,30.7039 92.7576,65.9483C 93.623,66.7054 94.3801,67.3536 95.1365,68.1107L 103.352,80.2188C 104.109,81.7323 103.675,82.1632 104.975,83.0285C 104.975,81.0835 105.406,80.9751 105.406,78.8135L 101.191,68.9754C 100.757,68.4334 100.865,68.7588 100.54,68.0017C 84.1082,38.7031 34.1625,32.7574 10.3773,61.9477C 4.32329,69.9469 0.105408,83.1368 0.105408,92.2178"/>
		<path fill="#EC268F" fill-opacity="1" fill-rule="evenodd" stroke-width="0.2" stroke-linejoin="round" d="M 72.6483,98.7063C 72.6483,99.3545 72.7565,99.2455 73.1882,99.5689C 73.8392,100.111 74.2701,99.8943 76.0008,98.1636C 92.1095,85.9473 114.595,74.9211 133.622,91.1388C 166.811,119.461 106.596,170.489 84.4337,186.598C 84.3247,186.598 84.3247,186.706 84.2165,186.706C 83.891,187.032 83.7827,187.032 83.4601,187.354C 82.9202,187.894 82.703,188.437 82.3775,189.085C 83.9992,189.408 85.9472,189.193 87.4607,188.437C 123.676,170.706 174.164,139.245 160,97.6237C 159.244,95.4621 155.029,89.2998 152.867,87.1374C 132.649,66.4883 92.6494,71.2459 77.2971,91.8952C 76.0008,93.6231 74.7017,95.4621 73.4047,97.1928C 73.082,97.732 72.7565,97.8409 72.7565,98.5974"/>
		<path fill="#FF7D00" fill-opacity="1" fill-rule="evenodd" stroke-width="0.2" stroke-linejoin="round" d="M 88.5397,118.382C 95.4592,120.652 97.1899,118.813 103.784,123.139C 118.271,132.652 115.783,150.491 100.865,156.868C 90.596,161.299 75.2437,157.41 75.6753,147.03C 76.0008,139.139 91.0276,133.948 97.6208,146.921C 97.4071,136.327 87.2435,136.544 85.4045,133.733C 83.9992,132.003 85.6217,128.867 88.3261,128.002C 92.8666,126.38 93.9456,128.651 97.1899,129.841C 94.9193,123.353 84.8646,123.679 82.703,128.976L 81.5121,134.382C 79.3504,136.004 76.9716,136.004 74.1618,138.166C 66.7025,144.003 69.6213,154.166 75.2437,158.707C 94.1629,173.733 128.756,154.814 117.296,131.464C 112.325,121.409 100.973,117.082 88.757,118.382"/>
		<path fill="#0088A5" fill-opacity="1" fill-rule="evenodd" stroke-width="0.2" stroke-linejoin="round" d="M 65.5117,18.1621C 65.5117,28.1948 56.0275,36.3271 44.3226,36.3271C 32.6212,36.3271 23.1335,28.1948 23.1335,18.1621C 23.1335,8.13242 32.6212,9.15527e-005 44.3226,9.15527e-005C 56.0275,9.15527e-005 65.5117,8.13242 65.5117,18.1621 Z "/>
		<path fill="#EC268F" fill-opacity="1" fill-rule="evenodd" stroke-width="0.2" stroke-linejoin="round" d="M 154.595,52.3268C 154.595,62.3565 145.11,70.4889 133.406,70.4889C 121.704,70.4889 112.217,62.3565 112.217,52.3268C 112.217,42.2942 121.704,34.1619 133.406,34.1619C 145.11,34.1619 154.595,42.2942 154.595,52.3268 Z "/>
	</g>
	<g>
		<path fill="#000000" fill-opacity="1" stroke-width="0.2" stroke-linejoin="round" d="M 259.504,49.2093C 259.504,52.7301 258.915,55.961 257.738,58.9019C 256.561,61.843 254.905,64.3759 252.77,66.5009C 250.634,68.6259 248.066,70.2752 245.066,71.4488C 242.066,72.6224 238.733,73.2093 235.066,73.2093L 216.702,73.2093L 216.702,25.2093L 235.066,25.2093C 238.733,25.2093 242.066,25.8013 245.066,26.9853C 248.066,28.1693 250.634,29.8186 252.77,31.9332C 254.905,34.0478 256.561,36.5755 257.738,39.5166C 258.915,42.4576 259.504,45.6884 259.504,49.2093 Z M 250.306,49.2093C 250.306,46.612 249.955,44.2822 249.254,42.2197C 248.553,40.1572 247.54,38.4107 246.218,36.9801C 244.895,35.5495 243.296,34.4524 241.421,33.6884C 239.546,32.9245 237.428,32.5426 235.066,32.5426L 225.702,32.5426L 225.702,65.8759L 235.066,65.8759C 237.428,65.8759 239.546,65.494 241.421,64.7301C 243.296,63.9662 244.895,62.869 246.218,61.4384C 247.54,60.0078 248.553,58.2613 249.254,56.1988C 249.955,54.1363 250.306,51.8065 250.306,49.2093 Z "/>
		<path fill="#000000" fill-opacity="1" stroke-width="0.2" stroke-linejoin="round" d="M 273.837,45.1363C 274.907,43.0947 276.174,41.4853 277.639,40.3082C 279.105,39.1311 280.837,38.5426 282.837,38.5426C 284.414,38.5426 285.681,38.9002 286.639,39.6155L 286.108,45.7718C 285.997,46.1745 285.836,46.4593 285.624,46.6259C 285.412,46.7926 285.129,46.8759 284.775,46.8759C 284.441,46.8759 283.947,46.8203 283.29,46.7093C 282.634,46.5982 281.994,46.5426 281.369,46.5426C 280.459,46.5426 279.648,46.6797 278.936,46.9541C 278.224,47.2284 277.586,47.6224 277.02,48.1363C 276.454,48.6502 275.954,49.2735 275.52,50.0061C 275.086,50.7388 274.681,51.5738 274.306,52.5113L 274.306,73.2093L 266.066,73.2093L 266.066,39.2093L 270.9,39.2093C 271.747,39.2093 272.337,39.3586 272.671,39.6572C 273.004,39.9558 273.226,40.494 273.337,41.2718L 273.837,45.1363 Z "/>
		<path fill="#000000" fill-opacity="1" stroke-width="0.2" stroke-linejoin="round" d="M 289.535,68.8968C 289.535,68.2093 289.664,67.5547 289.921,66.9332C 290.178,66.3117 290.528,65.7805 290.973,65.3394C 291.417,64.8985 291.95,64.5443 292.572,64.2769C 293.193,64.0096 293.858,63.8759 294.566,63.8759C 295.282,63.8759 295.945,64.0096 296.556,64.2769C 297.167,64.5443 297.7,64.8985 298.155,65.3394C 298.61,65.7805 298.971,66.3117 299.238,66.9332C 299.506,67.5547 299.639,68.2093 299.639,68.8968C 299.639,69.6051 299.506,70.263 299.238,70.8707C 298.971,71.4784 298.61,72.0044 298.155,72.4488C 297.7,72.8933 297.167,73.2422 296.556,73.4957C 295.945,73.7492 295.282,73.8759 294.566,73.8759C 293.858,73.8759 293.193,73.7492 292.572,73.4957C 291.95,73.2422 291.417,72.8933 290.973,72.4488C 290.528,72.0044 290.178,71.4784 289.921,70.8707C 289.664,70.263 289.535,69.6051 289.535,68.8968 Z "/>
		<path fill="#000000" fill-opacity="1" stroke-width="0.2" stroke-linejoin="round" d="M 365.337,25.2093L 345.869,73.2093L 337.775,73.2093L 318.306,25.2093L 325.504,25.2093C 326.282,25.2093 326.915,25.3985 327.405,25.7769C 327.895,26.1555 328.261,26.6433 328.504,27.2405L 339.869,56.6155C 340.251,57.5738 340.613,58.6242 340.957,59.7666C 341.301,60.9089 341.629,62.1016 341.941,63.3447C 342.205,62.1016 342.494,60.9089 342.806,59.7666C 343.119,58.6242 343.462,57.5738 343.837,56.6155L 355.139,27.2405C 355.313,26.7336 355.662,26.2683 356.186,25.8447C 356.711,25.4211 357.351,25.2093 358.108,25.2093L 365.337,25.2093 Z "/>
		<path fill="#000000" fill-opacity="1" stroke-width="0.2" stroke-linejoin="round" d="M 386.806,59.2093C 384.424,59.2093 382.422,59.3499 380.801,59.6311C 379.179,59.9124 377.881,60.2701 376.905,60.7041C 375.929,61.138 375.23,61.6451 374.806,62.2249C 374.382,62.8047 374.171,63.4349 374.171,64.1155C 374.171,65.4627 374.598,66.4263 375.452,67.0061C 376.306,67.586 377.424,67.8759 378.806,67.8759C 380.494,67.8759 381.954,67.5947 383.186,67.0322C 384.419,66.4697 385.626,65.619 386.806,64.4801L 386.806,59.2093 Z M 367.941,43.7718C 371.872,40.2857 376.605,38.5426 382.139,38.5426C 384.139,38.5426 385.928,38.869 387.504,39.5218C 389.08,40.1745 390.414,41.0808 391.504,42.2405C 392.594,43.4002 393.422,44.7874 393.988,46.4019C 394.554,48.0166 394.837,49.7857 394.837,51.7093L 394.837,73.2093L 391.108,73.2093C 390.33,73.2093 389.73,73.0894 389.306,72.8499C 388.882,72.6103 388.549,72.1224 388.306,71.3863L 387.566,68.8447C 386.705,69.6641 385.863,70.3846 385.04,71.0061C 384.218,71.6277 383.362,72.1502 382.473,72.5738C 381.584,72.9974 380.634,73.3203 379.624,73.5426C 378.613,73.7649 377.497,73.8759 376.275,73.8759C 374.83,73.8759 373.497,73.6815 372.275,73.2926C 371.053,72.9037 369.997,72.3221 369.108,71.5478C 368.219,70.7735 367.53,69.8082 367.04,68.6519C 366.551,67.4957 366.306,66.1537 366.306,64.6259C 366.306,63.7578 366.45,62.8968 366.738,62.0426C 367.027,61.1884 367.499,60.3742 368.155,59.5999C 368.811,58.8255 369.662,58.0947 370.707,57.4072C 371.752,56.7197 373.035,56.1207 374.556,55.6103C 376.077,55.0999 377.848,54.6832 379.869,54.3603C 381.889,54.0374 384.202,53.8759 386.806,53.8759L 386.806,51.7405C 386.806,49.2961 386.316,47.4853 385.337,46.3082C 384.358,45.1311 382.948,44.5426 381.108,44.5426C 379.775,44.5426 378.669,44.7076 377.79,45.0374C 376.912,45.3672 376.139,45.7405 375.473,46.1572C 374.806,46.5738 374.2,46.9471 373.655,47.2769C 373.11,47.6068 372.504,47.7718 371.837,47.7718C 371.261,47.7718 370.773,47.6259 370.374,47.3343C 369.974,47.0426 369.65,46.7058 369.4,46.3238L 367.941,43.7718 Z "/>
		<path fill="#000000" fill-opacity="1" stroke-width="0.2" stroke-linejoin="round" d="M 410.504,45.1363C 411.573,43.0947 412.841,41.4853 414.306,40.3082C 415.771,39.1311 417.504,38.5426 419.504,38.5426C 421.08,38.5426 422.348,38.9002 423.306,39.6155L 422.775,45.7718C 422.664,46.1745 422.502,46.4593 422.29,46.6259C 422.079,46.7926 421.796,46.8759 421.441,46.8759C 421.108,46.8759 420.613,46.8203 419.957,46.7093C 419.301,46.5982 418.66,46.5426 418.035,46.5426C 417.126,46.5426 416.315,46.6797 415.603,46.9541C 414.891,47.2284 414.252,47.6224 413.686,48.1363C 413.12,48.6502 412.62,49.2735 412.186,50.0061C 411.752,50.7388 411.348,51.5738 410.973,52.5113L 410.973,73.2093L 402.733,73.2093L 402.733,39.2093L 407.566,39.2093C 408.414,39.2093 409.004,39.3586 409.337,39.6572C 409.671,39.9558 409.893,40.494 410.004,41.2718L 410.504,45.1363 Z "/>
		<path fill="#000000" fill-opacity="1" stroke-width="0.2" stroke-linejoin="round" d="M 448.275,45.7301C 448.053,46.0843 447.818,46.3326 447.572,46.4749C 447.325,46.6172 447.014,46.6884 446.639,46.6884C 446.237,46.6884 445.808,46.5791 445.353,46.3603C 444.898,46.1416 444.37,45.8933 443.77,45.6155C 443.169,45.3377 442.485,45.0894 441.718,44.8707C 440.95,44.6519 440.046,44.5426 439.004,44.5426C 437.379,44.5426 436.106,44.888 435.186,45.5791C 434.266,46.2701 433.806,47.1711 433.806,48.2822C 433.806,49.0183 434.044,49.6363 434.52,50.1363C 434.995,50.6363 435.629,51.0755 436.421,51.4541C 437.212,51.8326 438.108,52.1728 439.108,52.4749C 440.108,52.7769 441.124,53.1068 442.155,53.4644C 443.186,53.8221 444.202,54.2284 445.202,54.6832C 446.202,55.138 447.096,55.7162 447.884,56.4176C 448.672,57.119 449.306,57.9593 449.785,58.9384C 450.264,59.9176 450.504,61.0982 450.504,62.4801C 450.504,64.1328 450.209,65.6555 449.619,67.0478C 449.028,68.4402 448.157,69.6416 447.004,70.6519C 445.851,71.6624 444.424,72.4524 442.723,73.0218C 441.021,73.5912 439.06,73.8759 436.837,73.8759C 435.657,73.8759 434.506,73.7666 433.384,73.5478C 432.263,73.3291 431.186,73.0252 430.155,72.6363C 429.124,72.2474 428.169,71.7909 427.29,71.2666C 426.412,70.7422 425.639,70.1711 424.973,69.553L 426.869,66.3447C 427.112,65.9627 427.4,65.6693 427.733,65.4644C 428.066,65.2596 428.49,65.1572 429.004,65.1572C 429.518,65.1572 430.002,65.3013 430.457,65.5894C 430.912,65.8777 431.44,66.1867 432.04,66.5166C 432.641,66.8464 433.346,67.1555 434.155,67.4436C 434.964,67.7318 435.99,67.8759 437.233,67.8759C 438.212,67.8759 439.053,67.7596 439.754,67.5269C 440.455,67.2943 441.034,66.9905 441.488,66.6155C 441.943,66.2405 442.277,65.8047 442.488,65.3082C 442.7,64.8117 442.806,64.2961 442.806,63.7613C 442.806,62.9697 442.566,62.3203 442.087,61.8134C 441.608,61.3065 440.974,60.8638 440.186,60.4853C 439.398,60.1068 438.499,59.7683 437.488,59.4697C 436.478,59.1711 435.445,58.8464 434.389,58.4957C 433.334,58.1451 432.301,57.7318 431.29,57.2561C 430.28,56.7805 429.379,56.178 428.587,55.4488C 427.796,54.7197 427.162,53.8238 426.686,52.7613C 426.211,51.6988 425.973,50.4176 425.973,48.9176C 425.973,47.5218 426.251,46.1953 426.806,44.9384C 427.362,43.6815 428.178,42.5826 429.254,41.6416C 430.33,40.7005 431.674,39.9488 433.285,39.3863C 434.896,38.8238 436.757,38.5426 438.869,38.5426C 441.223,38.5426 443.367,38.9315 445.301,39.7093C 447.235,40.487 448.848,41.5113 450.139,42.7822L 448.275,45.7301 Z "/>
		<path fill="#000000" fill-opacity="1" stroke-width="0.2" stroke-linejoin="round" d="M 464.973,42.4905C 466.306,41.3238 467.773,40.3742 469.374,39.6416C 470.974,38.9089 472.851,38.5426 475.004,38.5426C 476.872,38.5426 478.528,38.8586 479.973,39.4905C 481.417,40.1224 482.622,41.0096 483.587,42.1519C 484.553,43.2943 485.285,44.6589 485.785,46.2457C 486.285,47.8326 486.535,49.5774 486.535,51.4801L 486.535,73.2093L 478.306,73.2093L 478.306,51.1884C 478.306,49.0703 477.829,47.4332 476.874,46.2769C 475.919,45.1207 474.462,44.5426 472.504,44.5426C 471.08,44.5426 469.747,44.8985 468.504,45.6103C 467.261,46.3221 466.084,47.2926 464.973,48.5218L 464.973,73.2093L 456.733,73.2093L 456.733,23.8759L 464.973,23.8759L 464.973,42.4905 Z "/>
		<path fill="#000000" fill-opacity="1" stroke-width="0.2" stroke-linejoin="round" d="M 512.139,59.2093C 509.758,59.2093 507.756,59.3499 506.134,59.6311C 504.513,59.9124 503.214,60.2701 502.238,60.7041C 501.263,61.138 500.563,61.6451 500.139,62.2249C 499.716,62.8047 499.504,63.4349 499.504,64.1155C 499.504,65.4627 499.931,66.4263 500.785,67.0061C 501.639,67.586 502.758,67.8759 504.139,67.8759C 505.827,67.8759 507.287,67.5947 508.52,67.0322C 509.752,66.4697 510.959,65.619 512.139,64.4801L 512.139,59.2093 Z M 493.275,43.7718C 497.205,40.2857 501.938,38.5426 507.473,38.5426C 509.473,38.5426 511.261,38.869 512.837,39.5218C 514.414,40.1745 515.747,41.0808 516.837,42.2405C 517.928,43.4002 518.756,44.7874 519.322,46.4019C 519.888,48.0166 520.171,49.7857 520.171,51.7093L 520.171,73.2093L 516.441,73.2093C 515.664,73.2093 515.063,73.0894 514.639,72.8499C 514.216,72.6103 513.883,72.1224 513.639,71.3863L 512.9,68.8447C 512.039,69.6641 511.197,70.3846 510.374,71.0061C 509.551,71.6277 508.695,72.1502 507.806,72.5738C 506.917,72.9974 505.968,73.3203 504.957,73.5426C 503.947,73.7649 502.83,73.8759 501.608,73.8759C 500.164,73.8759 498.83,73.6815 497.608,73.2926C 496.386,72.9037 495.33,72.3221 494.441,71.5478C 493.553,70.7735 492.863,69.8082 492.374,68.6519C 491.884,67.4957 491.639,66.1537 491.639,64.6259C 491.639,63.7578 491.784,62.8968 492.072,62.0426C 492.36,61.1884 492.832,60.3742 493.488,59.5999C 494.145,58.8255 494.995,58.0947 496.04,57.4072C 497.086,56.7197 498.369,56.1207 499.889,55.6103C 501.41,55.0999 503.181,54.6832 505.202,54.3603C 507.223,54.0374 509.535,53.8759 512.139,53.8759L 512.139,51.7405C 512.139,49.2961 511.65,47.4853 510.671,46.3082C 509.691,45.1311 508.282,44.5426 506.441,44.5426C 505.108,44.5426 504.002,44.7076 503.124,45.0374C 502.245,45.3672 501.473,45.7405 500.806,46.1572C 500.139,46.5738 499.534,46.9471 498.988,47.2769C 498.443,47.6068 497.837,47.7718 497.171,47.7718C 496.594,47.7718 496.106,47.6259 495.707,47.3343C 495.308,47.0426 494.983,46.7058 494.733,46.3238L 493.275,43.7718 Z "/>
		<rect x="528.171" y="23.8759" fill="#000000" fill-opacity="1" stroke-width="0.2" stroke-linejoin="round" width="8.22919" height="49.3333"/>
		<path fill="#000000" fill-opacity="1" stroke-width="0.2" stroke-linejoin="round" d="M 553.275,39.2093L 553.275,73.2093L 545.004,73.2093L 545.004,39.2093L 553.275,39.2093 Z M 554.4,29.2613C 554.4,29.9905 554.256,30.6728 553.968,31.3082C 553.679,31.9436 553.297,32.4992 552.822,32.9749C 552.346,33.4505 551.785,33.8308 551.139,34.1155C 550.494,34.4002 549.803,34.5426 549.066,34.5426C 548.358,34.5426 547.688,34.4002 547.056,34.1155C 546.424,33.8308 545.874,33.4505 545.405,32.9749C 544.936,32.4992 544.563,31.9436 544.285,31.3082C 544.008,30.6728 543.869,29.9905 543.869,29.2613C 543.869,28.5113 544.008,27.8065 544.285,27.1468C 544.563,26.487 544.936,25.9193 545.405,25.4436C 545.874,24.968 546.424,24.5877 547.056,24.303C 547.688,24.0183 548.358,23.8759 549.066,23.8759C 549.803,23.8759 550.494,24.0183 551.139,24.303C 551.785,24.5877 552.346,24.968 552.822,25.4436C 553.297,25.9193 553.679,26.487 553.968,27.1468C 554.256,27.8065 554.4,28.5113 554.4,29.2613 Z "/>
		<path fill="#000000" fill-opacity="1" stroke-width="0.2" stroke-linejoin="round" d="M 567.973,25.2093L 567.973,34.9801L 567.233,40.178C 567.06,41.1572 566.773,41.9072 566.374,42.428C 565.974,42.9488 565.306,43.2093 564.369,43.2093C 563.549,43.2093 562.917,42.9488 562.473,42.428C 562.028,41.9072 561.716,41.1572 561.535,40.178L 560.806,34.9801L 560.806,25.2093L 567.973,25.2093 Z "/>
		<path fill="#000000" fill-opacity="1" stroke-width="0.2" stroke-linejoin="round" d="M 596.275,45.7301C 596.053,46.0843 595.818,46.3326 595.572,46.4749C 595.325,46.6172 595.014,46.6884 594.639,46.6884C 594.237,46.6884 593.808,46.5791 593.353,46.3603C 592.898,46.1416 592.37,45.8933 591.77,45.6155C 591.169,45.3377 590.485,45.0894 589.718,44.8707C 588.95,44.6519 588.046,44.5426 587.004,44.5426C 585.379,44.5426 584.106,44.888 583.186,45.5791C 582.266,46.2701 581.806,47.1711 581.806,48.2822C 581.806,49.0183 582.044,49.6363 582.52,50.1363C 582.995,50.6363 583.629,51.0755 584.421,51.4541C 585.212,51.8326 586.108,52.1728 587.108,52.4749C 588.108,52.7769 589.124,53.1068 590.155,53.4644C 591.186,53.8221 592.202,54.2284 593.202,54.6832C 594.202,55.138 595.096,55.7162 595.884,56.4176C 596.672,57.119 597.306,57.9593 597.785,58.9384C 598.264,59.9176 598.504,61.0982 598.504,62.4801C 598.504,64.1328 598.209,65.6555 597.619,67.0478C 597.028,68.4402 596.157,69.6416 595.004,70.6519C 593.851,71.6624 592.424,72.4524 590.723,73.0218C 589.021,73.5912 587.06,73.8759 584.837,73.8759C 583.657,73.8759 582.506,73.7666 581.384,73.5478C 580.263,73.3291 579.186,73.0252 578.155,72.6363C 577.124,72.2474 576.169,71.7909 575.29,71.2666C 574.412,70.7422 573.639,70.1711 572.973,69.553L 574.869,66.3447C 575.112,65.9627 575.4,65.6693 575.733,65.4644C 576.066,65.2596 576.49,65.1572 577.004,65.1572C 577.518,65.1572 578.002,65.3013 578.457,65.5894C 578.912,65.8777 579.44,66.1867 580.04,66.5166C 580.641,66.8464 581.346,67.1555 582.155,67.4436C 582.964,67.7318 583.99,67.8759 585.233,67.8759C 586.212,67.8759 587.053,67.7596 587.754,67.5269C 588.455,67.2943 589.034,66.9905 589.488,66.6155C 589.943,66.2405 590.277,65.8047 590.488,65.3082C 590.7,64.8117 590.806,64.2961 590.806,63.7613C 590.806,62.9697 590.566,62.3203 590.087,61.8134C 589.608,61.3065 588.974,60.8638 588.186,60.4853C 587.398,60.1068 586.499,59.7683 585.488,59.4697C 584.478,59.1711 583.445,58.8464 582.389,58.4957C 581.334,58.1451 580.301,57.7318 579.29,57.2561C 578.28,56.7805 577.379,56.178 576.587,55.4488C 575.796,54.7197 575.162,53.8238 574.686,52.7613C 574.211,51.6988 573.973,50.4176 573.973,48.9176C 573.973,47.5218 574.25,46.1953 574.806,44.9384C 575.362,43.6815 576.178,42.5826 577.254,41.6416C 578.33,40.7005 579.674,39.9488 581.285,39.3863C 582.896,38.8238 584.758,38.5426 586.869,38.5426C 589.223,38.5426 591.367,38.9315 593.301,39.7093C 595.235,40.487 596.848,41.5113 598.139,42.7822L 596.275,45.7301 Z "/>
		<path fill="#FF7D00" fill-opacity="1" stroke-width="0.2" stroke-linejoin="round" d="M 256.441,129.209L 256.441,148.605C 253.997,150.431 251.391,151.767 248.624,152.61C 245.856,153.454 242.893,153.876 239.733,153.876C 235.803,153.876 232.244,153.265 229.056,152.043C 225.869,150.82 223.146,149.117 220.889,146.933C 218.632,144.749 216.893,142.145 215.671,139.121C 214.448,136.096 213.837,132.793 213.837,129.209C 213.837,125.584 214.426,122.258 215.603,119.23C 216.78,116.202 218.452,113.598 220.619,111.418C 222.785,109.237 225.414,107.546 228.504,106.345C 231.594,105.143 235.06,104.543 238.9,104.543C 240.858,104.543 242.688,104.692 244.389,104.991C 246.091,105.289 247.669,105.701 249.124,106.225C 250.579,106.749 251.905,107.386 253.103,108.136C 254.301,108.886 255.4,109.709 256.4,110.605L 253.837,114.616C 253.435,115.261 252.912,115.655 252.27,115.798C 251.627,115.94 250.928,115.779 250.171,115.313C 249.435,114.89 248.7,114.468 247.968,114.048C 247.235,113.628 246.419,113.261 245.52,112.949C 244.62,112.636 243.61,112.379 242.488,112.178C 241.367,111.977 240.073,111.876 238.608,111.876C 236.226,111.876 234.075,112.279 232.155,113.084C 230.235,113.89 228.596,115.039 227.238,116.532C 225.881,118.025 224.836,119.822 224.103,121.923C 223.37,124.023 223.004,126.369 223.004,128.959C 223.004,131.73 223.398,134.204 224.186,136.381C 224.974,138.558 226.086,140.4 227.52,141.907C 228.954,143.414 230.681,144.563 232.702,145.355C 234.723,146.147 236.98,146.543 239.473,146.543C 241.251,146.543 242.839,146.357 244.238,145.985C 245.638,145.614 247.004,145.112 248.337,144.48L 248.337,135.876L 242.275,135.876C 241.691,135.876 241.24,135.716 240.921,135.397C 240.601,135.077 240.441,134.688 240.441,134.23L 240.441,129.209L 256.441,129.209 Z "/>
		<path fill="#FF7D00" fill-opacity="1" stroke-width="0.2" stroke-linejoin="round" d="M 295.139,119.209L 276.504,162.782C 276.261,163.359 275.945,163.796 275.556,164.095C 275.167,164.393 274.573,164.543 273.775,164.543L 267.639,164.543L 274.035,150.834L 260.202,119.209L 267.441,119.209C 268.08,119.209 268.584,119.366 268.952,119.678C 269.32,119.991 269.594,120.345 269.775,120.741L 277.035,138.47C 277.278,139.074 277.483,139.675 277.65,140.272C 277.816,140.869 277.98,141.48 278.139,142.105C 278.341,141.48 278.54,140.862 278.738,140.251C 278.936,139.64 279.157,139.036 279.4,138.438L 286.275,120.741C 286.448,120.296 286.742,119.93 287.155,119.642C 287.568,119.353 288.028,119.209 288.535,119.209L 295.139,119.209 Z "/>
		<path fill="#FF7D00" fill-opacity="1" stroke-width="0.2" stroke-linejoin="round" d="M 307.108,123.407C 307.796,122.72 308.523,122.081 309.29,121.491C 310.058,120.9 310.869,120.4 311.723,119.991C 312.577,119.581 313.494,119.237 314.473,118.959C 315.452,118.681 316.518,118.543 317.671,118.543C 319.539,118.543 321.195,118.859 322.639,119.491C 324.084,120.122 325.289,121.01 326.254,122.152C 327.219,123.294 327.952,124.659 328.452,126.246C 328.952,127.833 329.202,129.577 329.202,131.48L 329.202,153.209L 320.973,153.209L 320.973,131.188C 320.973,129.07 320.495,127.433 319.54,126.277C 318.586,125.121 317.129,124.543 315.171,124.543C 313.747,124.543 312.414,124.898 311.171,125.61C 309.928,126.322 308.751,127.293 307.639,128.522L 307.639,153.209L 299.4,153.209L 299.4,119.209L 304.441,119.209C 305.504,119.209 306.202,119.709 306.535,120.709L 307.108,123.407 Z "/>
		<path fill="#FF7D00" fill-opacity="1" stroke-width="0.2" stroke-linejoin="round" d="M 358.775,132.543C 358.775,131.445 358.624,130.412 358.322,129.444C 358.02,128.475 357.568,127.626 356.968,126.897C 356.367,126.168 355.606,125.593 354.686,125.173C 353.766,124.753 352.695,124.543 351.473,124.543C 349.091,124.543 347.218,125.237 345.853,126.626C 344.488,128.015 343.615,129.987 343.233,132.543L 358.775,132.543 Z M 343.066,137.209C 343.205,139.043 343.518,140.628 344.004,141.964C 344.49,143.301 345.134,144.405 345.936,145.277C 346.738,146.148 347.69,146.8 348.79,147.23C 349.891,147.661 351.108,147.876 352.441,147.876C 353.775,147.876 354.924,147.714 355.889,147.392C 356.855,147.069 357.698,146.709 358.421,146.313C 359.143,145.918 359.777,145.558 360.322,145.235C 360.867,144.912 361.393,144.751 361.9,144.751C 362.594,144.751 363.108,145.015 363.441,145.543L 365.806,148.636C 364.896,149.636 363.874,150.473 362.738,151.147C 361.603,151.82 360.419,152.36 359.186,152.767C 357.954,153.173 356.698,153.459 355.421,153.626C 354.143,153.793 352.903,153.876 351.702,153.876C 349.327,153.876 347.117,153.48 345.072,152.688C 343.027,151.897 341.249,150.727 339.738,149.178C 338.228,147.629 337.039,145.713 336.171,143.428C 335.303,141.143 334.869,138.497 334.869,135.491C 334.869,133.15 335.247,130.949 336.004,128.886C 336.761,126.824 337.844,125.03 339.254,123.506C 340.664,121.982 342.386,120.773 344.421,119.881C 346.455,118.989 348.751,118.543 351.306,118.543C 353.459,118.543 355.447,118.886 357.27,119.574C 359.093,120.261 360.66,121.267 361.973,122.589C 363.285,123.912 364.313,125.536 365.056,127.459C 365.799,129.383 366.171,131.577 366.171,134.043C 366.171,135.286 366.037,136.124 365.77,136.558C 365.502,136.992 364.99,137.209 364.233,137.209L 343.066,137.209 Z "/>
		<path fill="#FF7D00" fill-opacity="1" stroke-width="0.2" stroke-linejoin="round" d="M 396.566,126.126C 396.323,126.438 396.086,126.683 395.853,126.86C 395.62,127.037 395.282,127.126 394.837,127.126C 394.414,127.126 394.002,126.994 393.603,126.73C 393.204,126.466 392.726,126.168 392.171,125.834C 391.615,125.501 390.954,125.202 390.186,124.938C 389.419,124.675 388.469,124.543 387.337,124.543C 385.893,124.543 384.626,124.812 383.535,125.35C 382.445,125.888 381.539,126.659 380.816,127.662C 380.094,128.666 379.556,129.881 379.202,131.308C 378.848,132.735 378.671,134.352 378.671,136.157C 378.671,138.032 378.865,139.701 379.254,141.162C 379.643,142.624 380.204,143.852 380.936,144.845C 381.669,145.838 382.558,146.591 383.603,147.105C 384.648,147.619 385.827,147.876 387.139,147.876C 388.452,147.876 389.513,147.711 390.322,147.381C 391.131,147.051 391.813,146.688 392.369,146.293C 392.924,145.897 393.409,145.534 393.822,145.204C 394.235,144.874 394.695,144.709 395.202,144.709C 395.869,144.709 396.369,144.97 396.702,145.491L 399.066,148.543C 398.157,149.556 397.169,150.407 396.103,151.095C 395.037,151.782 393.931,152.333 392.785,152.746C 391.639,153.159 390.462,153.451 389.254,153.621C 388.046,153.791 386.841,153.876 385.639,153.876C 383.528,153.876 381.539,153.48 379.671,152.688C 377.803,151.897 376.169,150.744 374.77,149.23C 373.37,147.716 372.264,145.862 371.452,143.668C 370.639,141.473 370.233,138.97 370.233,136.157C 370.233,133.643 370.594,131.31 371.316,129.157C 372.039,127.004 373.101,125.143 374.504,123.574C 375.907,122.004 377.641,120.773 379.707,119.881C 381.773,118.989 384.15,118.543 386.837,118.543C 389.393,118.543 391.632,118.938 393.556,119.73C 395.48,120.522 397.205,121.654 398.733,123.126L 396.566,126.126 Z "/>
		<path fill="#FF7D00" fill-opacity="1" stroke-width="0.2" stroke-linejoin="round" d="M 419.202,118.543C 421.737,118.543 424.042,118.954 426.119,119.777C 428.195,120.6 429.973,121.77 431.452,123.287C 432.931,124.805 434.07,126.655 434.869,128.839C 435.667,131.023 436.066,133.463 436.066,136.157C 436.066,138.879 435.667,141.333 434.869,143.517C 434.07,145.701 432.931,147.562 431.452,149.1C 429.973,150.638 428.195,151.819 426.119,152.642C 424.042,153.464 421.737,153.876 419.202,153.876C 416.646,153.876 414.325,153.464 412.238,152.642C 410.152,151.819 408.369,150.638 406.889,149.1C 405.41,147.562 404.264,145.701 403.452,143.517C 402.639,141.333 402.233,138.879 402.233,136.157C 402.233,133.463 402.639,131.023 403.452,128.839C 404.264,126.655 405.41,124.805 406.889,123.287C 408.369,121.77 410.152,120.6 412.238,119.777C 414.325,118.954 416.646,118.543 419.202,118.543 Z M 419.202,147.876C 422.049,147.876 424.155,146.89 425.52,144.918C 426.884,142.945 427.566,140.053 427.566,136.241C 427.566,132.435 426.884,129.534 425.52,127.537C 424.155,125.541 422.049,124.543 419.202,124.543C 416.313,124.543 414.174,125.546 412.785,127.553C 411.396,129.56 410.702,132.456 410.702,136.241C 410.702,140.025 411.396,142.911 412.785,144.897C 414.174,146.883 416.313,147.876 419.202,147.876 Z "/>
		<rect x="442.171" y="103.876" fill="#FF7D00" fill-opacity="1" stroke-width="0.2" stroke-linejoin="round" width="8.22919" height="49.3333"/>
		<path fill="#FF7D00" fill-opacity="1" stroke-width="0.2" stroke-linejoin="round" d="M 473.869,118.543C 476.403,118.543 478.709,118.954 480.785,119.777C 482.862,120.6 484.639,121.77 486.119,123.287C 487.598,124.805 488.737,126.655 489.535,128.839C 490.334,131.023 490.733,133.463 490.733,136.157C 490.733,138.879 490.334,141.333 489.535,143.517C 488.737,145.701 487.598,147.562 486.119,149.1C 484.639,150.638 482.862,151.819 480.785,152.642C 478.709,153.464 476.403,153.876 473.869,153.876C 471.313,153.876 468.992,153.464 466.905,152.642C 464.818,151.819 463.035,150.638 461.556,149.1C 460.077,147.562 458.931,145.701 458.119,143.517C 457.306,141.333 456.9,138.879 456.9,136.157C 456.9,133.463 457.306,131.023 458.119,128.839C 458.931,126.655 460.077,124.805 461.556,123.287C 463.035,121.77 464.818,120.6 466.905,119.777C 468.992,118.954 471.313,118.543 473.869,118.543 Z M 473.869,147.876C 476.716,147.876 478.822,146.89 480.186,144.918C 481.551,142.945 482.233,140.053 482.233,136.241C 482.233,132.435 481.551,129.534 480.186,127.537C 478.822,125.541 476.716,124.543 473.869,124.543C 470.98,124.543 468.841,125.546 467.452,127.553C 466.063,129.56 465.369,132.456 465.369,136.241C 465.369,140.025 466.063,142.911 467.452,144.897C 468.841,146.883 470.98,147.876 473.869,147.876 Z "/>
		<path fill="#FF7D00" fill-opacity="1" stroke-width="0.2" stroke-linejoin="round" d="M 509.233,135.209C 510.261,135.209 511.152,135.076 511.905,134.808C 512.659,134.541 513.285,134.173 513.785,133.704C 514.285,133.235 514.664,132.669 514.921,132.006C 515.178,131.343 515.306,130.616 515.306,129.824C 515.306,128.206 514.801,126.921 513.79,125.97C 512.78,125.018 511.261,124.543 509.233,124.543C 507.212,124.543 505.697,125.018 504.686,125.97C 503.676,126.921 503.171,128.206 503.171,129.824C 503.171,130.595 503.299,131.312 503.556,131.975C 503.813,132.638 504.191,133.209 504.691,133.688C 505.191,134.168 505.823,134.541 506.587,134.808C 507.351,135.076 508.233,135.209 509.233,135.209 Z M 518.535,154.532C 518.535,153.866 518.336,153.319 517.936,152.892C 517.537,152.464 516.994,152.133 516.306,151.897C 515.619,151.661 514.813,151.487 513.889,151.376C 512.966,151.265 511.987,151.209 510.952,151.209C 509.917,151.209 508.851,151.209 507.754,151.209C 506.657,151.209 505.584,151.14 504.535,151.001C 503.625,151.508 502.888,152.096 502.322,152.767C 501.756,153.437 501.473,154.213 501.473,155.095C 501.473,155.678 501.622,156.223 501.921,156.73C 502.219,157.237 502.697,157.675 503.353,158.043C 504.009,158.411 504.86,158.697 505.905,158.902C 506.95,159.107 508.226,159.209 509.733,159.209C 511.268,159.209 512.591,159.091 513.702,158.855C 514.813,158.619 515.73,158.294 516.452,157.881C 517.174,157.468 517.702,156.975 518.035,156.402C 518.369,155.829 518.535,155.206 518.535,154.532 Z M 526.733,120.397L 526.733,123.563C 526.733,124.57 526.146,125.188 524.973,125.418L 521.9,126.001C 522.372,127.147 522.608,128.4 522.608,129.761C 522.608,131.407 522.268,132.897 521.587,134.23C 520.907,135.563 519.968,136.695 518.77,137.626C 517.572,138.556 516.155,139.275 514.52,139.782C 512.884,140.289 511.122,140.543 509.233,140.543C 508.566,140.543 507.922,140.51 507.301,140.444C 506.679,140.378 506.07,140.289 505.473,140.178C 504.403,140.886 503.869,141.681 503.869,142.563C 503.869,143.32 504.186,143.878 504.822,144.235C 505.457,144.593 506.296,144.845 507.337,144.991C 508.379,145.136 509.566,145.209 510.9,145.209C 512.233,145.209 513.601,145.263 515.004,145.371C 516.407,145.478 517.775,145.669 519.108,145.944C 520.441,146.218 521.629,146.648 522.671,147.235C 523.712,147.822 524.551,148.622 525.186,149.636C 525.822,150.65 526.139,151.952 526.139,153.543C 526.139,155.022 525.766,156.459 525.02,157.855C 524.273,159.251 523.195,160.494 521.785,161.584C 520.375,162.675 518.643,163.551 516.587,164.214C 514.532,164.878 512.191,165.209 509.566,165.209C 506.99,165.209 504.747,164.961 502.837,164.464C 500.928,163.968 499.339,163.305 498.072,162.475C 496.804,161.645 495.86,160.688 495.238,159.605C 494.617,158.522 494.306,157.393 494.306,156.22C 494.306,154.629 494.789,153.298 495.754,152.225C 496.719,151.152 498.046,150.296 499.733,149.657C 498.823,149.192 498.103,148.569 497.572,147.787C 497.04,147.006 496.775,145.977 496.775,144.699C 496.775,144.192 496.869,143.664 497.056,143.116C 497.244,142.567 497.521,142.025 497.889,141.491C 498.258,140.956 498.719,140.449 499.275,139.97C 499.83,139.491 500.483,139.06 501.233,138.678C 499.504,137.747 498.145,136.51 497.155,134.964C 496.165,133.419 495.671,131.612 495.671,129.543C 495.671,127.862 496.009,126.343 496.686,124.985C 497.363,123.628 498.308,122.468 499.52,121.506C 500.731,120.544 502.165,119.81 503.822,119.303C 505.478,118.796 507.282,118.543 509.233,118.543C 510.705,118.543 512.086,118.701 513.374,119.017C 514.662,119.333 515.837,119.793 516.9,120.397L 526.733,120.397 Z "/>
		<path fill="#FF7D00" fill-opacity="1" stroke-width="0.2" stroke-linejoin="round" d="M 563.139,119.209L 544.504,162.782C 544.261,163.359 543.945,163.796 543.556,164.095C 543.167,164.393 542.573,164.543 541.775,164.543L 535.639,164.543L 542.035,150.834L 528.202,119.209L 535.441,119.209C 536.08,119.209 536.584,119.366 536.952,119.678C 537.32,119.991 537.594,120.345 537.775,120.741L 545.035,138.47C 545.278,139.074 545.483,139.675 545.65,140.272C 545.816,140.869 545.98,141.48 546.139,142.105C 546.341,141.48 546.54,140.862 546.738,140.251C 546.936,139.64 547.157,139.036 547.4,138.438L 554.275,120.741C 554.448,120.296 554.742,119.93 555.155,119.642C 555.568,119.353 556.028,119.209 556.535,119.209L 563.139,119.209 Z "/>
		<path fill="#FF7D00" fill-opacity="1" stroke-width="0.2" stroke-linejoin="round" d="M 617.806,142.157C 618.292,142.157 618.726,142.355 619.108,142.751L 622.639,146.751C 620.681,149.05 618.275,150.812 615.421,152.037C 612.566,153.263 609.139,153.876 605.139,153.876C 601.563,153.876 598.346,153.265 595.488,152.043C 592.631,150.82 590.191,149.117 588.171,146.933C 586.15,144.749 584.599,142.145 583.52,139.121C 582.44,136.096 581.9,132.793 581.9,129.209C 581.9,125.584 582.478,122.263 583.634,119.246C 584.79,116.228 586.419,113.629 588.52,111.449C 590.62,109.268 593.125,107.572 596.035,106.36C 598.945,105.148 602.167,104.543 605.702,104.543C 609.216,104.543 612.334,105.098 615.056,106.209C 617.778,107.32 620.094,108.775 622.004,110.574L 619.004,114.751C 618.823,115.015 618.594,115.247 618.316,115.449C 618.039,115.65 617.657,115.751 617.171,115.751C 616.837,115.751 616.494,115.655 616.139,115.464C 615.785,115.273 615.396,115.036 614.973,114.751C 614.549,114.466 614.06,114.154 613.504,113.813C 612.948,113.473 612.304,113.161 611.572,112.876C 610.839,112.591 609.988,112.353 609.02,112.162C 608.051,111.971 606.935,111.876 605.671,111.876C 603.518,111.876 601.546,112.267 599.754,113.048C 597.962,113.829 596.422,114.961 595.134,116.444C 593.846,117.926 592.846,119.737 592.134,121.876C 591.422,124.015 591.066,126.452 591.066,129.188C 591.066,131.952 591.45,134.409 592.218,136.558C 592.985,138.708 594.025,140.518 595.337,141.991C 596.65,143.463 598.195,144.589 599.973,145.371C 601.75,146.152 603.66,146.543 605.702,146.543C 606.924,146.543 608.03,146.475 609.02,146.339C 610.009,146.204 610.921,145.989 611.754,145.694C 612.587,145.398 613.375,145.018 614.119,144.553C 614.862,144.088 615.601,143.515 616.337,142.834C 616.56,142.633 616.792,142.47 617.035,142.345C 617.278,142.22 617.535,142.157 617.806,142.157 Z "/>
		<rect x="627.504" y="103.876" fill="#FF7D00" fill-opacity="1" stroke-width="0.2" stroke-linejoin="round" width="8.22919" height="49.3333"/>
		<path fill="#FF7D00" fill-opacity="1" stroke-width="0.2" stroke-linejoin="round" d="M 652.608,119.209L 652.608,153.209L 644.337,153.209L 644.337,119.209L 652.608,119.209 Z M 653.733,109.261C 653.733,109.991 653.589,110.673 653.301,111.308C 653.013,111.944 652.631,112.499 652.155,112.975C 651.679,113.451 651.119,113.831 650.473,114.116C 649.827,114.4 649.136,114.543 648.4,114.543C 647.691,114.543 647.021,114.4 646.389,114.116C 645.758,113.831 645.207,113.451 644.738,112.975C 644.27,112.499 643.896,111.944 643.619,111.308C 643.341,110.673 643.202,109.991 643.202,109.261C 643.202,108.511 643.341,107.806 643.619,107.147C 643.896,106.487 644.27,105.919 644.738,105.444C 645.207,104.968 645.758,104.588 646.389,104.303C 647.021,104.018 647.691,103.876 648.4,103.876C 649.136,103.876 649.827,104.018 650.473,104.303C 651.119,104.588 651.679,104.968 652.155,105.444C 652.631,105.919 653.013,106.487 653.301,107.147C 653.589,107.806 653.733,108.511 653.733,109.261 Z "/>
		<path fill="#FF7D00" fill-opacity="1" stroke-width="0.2" stroke-linejoin="round" d="M 668.441,123.407C 669.129,122.72 669.856,122.081 670.624,121.491C 671.391,120.9 672.202,120.4 673.056,119.991C 673.91,119.581 674.827,119.237 675.806,118.959C 676.785,118.681 677.851,118.543 679.004,118.543C 680.872,118.543 682.528,118.859 683.973,119.491C 685.417,120.122 686.622,121.01 687.587,122.152C 688.553,123.294 689.285,124.659 689.785,126.246C 690.285,127.833 690.535,129.577 690.535,131.48L 690.535,153.209L 682.306,153.209L 682.306,131.188C 682.306,129.07 681.829,127.433 680.874,126.277C 679.919,125.121 678.462,124.543 676.504,124.543C 675.08,124.543 673.747,124.898 672.504,125.61C 671.261,126.322 670.084,127.293 668.973,128.522L 668.973,153.209L 660.733,153.209L 660.733,119.209L 665.775,119.209C 666.837,119.209 667.535,119.709 667.869,120.709L 668.441,123.407 Z "/>
		<path fill="#FF7D00" fill-opacity="1" stroke-width="0.2" stroke-linejoin="round" d="M 706.608,119.209L 706.608,153.209L 698.337,153.209L 698.337,119.209L 706.608,119.209 Z M 707.733,109.261C 707.733,109.991 707.589,110.673 707.301,111.308C 707.013,111.944 706.631,112.499 706.155,112.975C 705.679,113.451 705.119,113.831 704.473,114.116C 703.827,114.4 703.136,114.543 702.4,114.543C 701.691,114.543 701.021,114.4 700.389,114.116C 699.758,113.831 699.207,113.451 698.738,112.975C 698.27,112.499 697.896,111.944 697.619,111.308C 697.341,110.673 697.202,109.991 697.202,109.261C 697.202,108.511 697.341,107.806 697.619,107.147C 697.896,106.487 698.27,105.919 698.738,105.444C 699.207,104.968 699.758,104.588 700.389,104.303C 701.021,104.018 701.691,103.876 702.4,103.876C 703.136,103.876 703.827,104.018 704.473,104.303C 705.119,104.588 705.679,104.968 706.155,105.444C 706.631,105.919 707.013,106.487 707.301,107.147C 707.589,107.806 707.733,108.511 707.733,109.261 Z "/>
		<path fill="#FF7D00" fill-opacity="1" stroke-width="0.2" stroke-linejoin="round" d="M 739.233,126.126C 738.99,126.438 738.752,126.683 738.52,126.86C 738.287,127.037 737.948,127.126 737.504,127.126C 737.08,127.126 736.669,126.994 736.27,126.73C 735.87,126.466 735.393,126.168 734.837,125.834C 734.282,125.501 733.62,125.202 732.853,124.938C 732.086,124.675 731.136,124.543 730.004,124.543C 728.56,124.543 727.292,124.812 726.202,125.35C 725.112,125.888 724.205,126.659 723.483,127.662C 722.761,128.666 722.223,129.881 721.869,131.308C 721.514,132.735 721.337,134.352 721.337,136.157C 721.337,138.032 721.532,139.701 721.921,141.162C 722.31,142.624 722.87,143.852 723.603,144.845C 724.336,145.838 725.224,146.591 726.27,147.105C 727.315,147.619 728.494,147.876 729.806,147.876C 731.119,147.876 732.179,147.711 732.988,147.381C 733.797,147.051 734.48,146.688 735.035,146.293C 735.591,145.897 736.075,145.534 736.488,145.204C 736.902,144.874 737.362,144.709 737.869,144.709C 738.535,144.709 739.035,144.97 739.369,145.491L 741.733,148.543C 740.823,149.556 739.836,150.407 738.77,151.095C 737.704,151.782 736.598,152.333 735.452,152.746C 734.306,153.159 733.129,153.451 731.921,153.621C 730.712,153.791 729.508,153.876 728.306,153.876C 726.195,153.876 724.205,153.48 722.337,152.688C 720.469,151.897 718.836,150.744 717.436,149.23C 716.037,147.716 714.931,145.862 714.119,143.668C 713.306,141.473 712.9,138.97 712.9,136.157C 712.9,133.643 713.261,131.31 713.983,129.157C 714.705,127.004 715.768,125.143 717.171,123.574C 718.573,122.004 720.308,120.773 722.374,119.881C 724.44,118.989 726.816,118.543 729.504,118.543C 732.06,118.543 734.299,118.938 736.223,119.73C 738.146,120.522 739.872,121.654 741.4,123.126L 739.233,126.126 Z "/>
	</g>
</svg>
